<svg width="50" height="50" viewBox="0 0 50 50" fill="none" xmlns="http://www.w3.org/2000/svg">
<path d="M25 47.2222C21.3164 47.2222 17.7837 45.7589 15.179 43.1543C12.5744 40.5496 11.1111 37.0169 11.1111 33.3333V16.6667C11.1111 12.9831 12.5744 9.4504 15.179 6.84573C17.7837 4.24106 21.3164 2.77777 25 2.77777C28.6835 2.77777 32.2162 4.24106 34.8209 6.84573C37.4256 9.4504 38.8889 12.9831 38.8889 16.6667V33.3333C38.8889 35.1572 38.5296 36.9633 37.8316 38.6484C37.1337 40.3335 36.1106 41.8646 34.8209 43.1543C33.5312 44.444 32.0001 45.467 30.315 46.165C28.6299 46.863 26.8239 47.2222 25 47.2222ZM25 5.55555C22.0531 5.55555 19.227 6.72618 17.1432 8.80992C15.0595 10.8937 13.8889 13.7198 13.8889 16.6667V33.3333C13.8889 36.2802 15.0595 39.1063 17.1432 41.1901C19.227 43.2738 22.0531 44.4444 25 44.4444C27.9468 44.4444 30.773 43.2738 32.8567 41.1901C34.9405 39.1063 36.1111 36.2802 36.1111 33.3333V16.6667C36.1111 13.7198 34.9405 10.8937 32.8567 8.80992C30.773 6.72618 27.9468 5.55555 25 5.55555Z" fill="#F2F2F2"/>
<path d="M25 20.8333C24.6316 20.8333 24.2783 20.687 24.0179 20.4265C23.7574 20.1661 23.6111 19.8128 23.6111 19.4444V13.8889C23.6111 13.5205 23.7574 13.1673 24.0179 12.9068C24.2783 12.6463 24.6316 12.5 25 12.5C25.3683 12.5 25.7216 12.6463 25.9821 12.9068C26.2425 13.1673 26.3889 13.5205 26.3889 13.8889V19.4444C26.3889 19.8128 26.2425 20.1661 25.9821 20.4265C25.7216 20.687 25.3683 20.8333 25 20.8333Z" fill="#F2F2F2"/>
</svg>
